<svg width="800" height="400" viewBox="0 0 800 400" xmlns="http://www.w3.org/2000/svg">
    <defs>
        <pattern id="satori_pattern_id_1" x="0" y="0" width="0.125" height="0.25" patternUnits="objectBoundingBox">
            <radialGradient id="satori_radial_id_1">
                <stop offset="0" stop-color="lightgray" />
                <stop offset="0.02" stop-color="lightgray" />
                <stop offset="0" stop-color="transparent" />
                <stop offset="1" stop-color="transparent" />
            </radialGradient>
            <mask id="satori_mask_id_1">
                <rect x="0" y="0" width="100" height="100" fill="#fff" />
            </mask>
            <rect x="0" y="0" width="100" height="100" fill="transparent" />
            <circle cx="75" cy="75" width="100" height="100" r="106.06601717798213" fill="url(#satori_radial_id_1)"
                mask="url(#satori_mask_id_1)" />
        </pattern>
        <pattern id="satori_pattern_id_0" x="0" y="0" width="0.125" height="0.25" patternUnits="objectBoundingBox">
            <radialGradient id="satori_radial_id_0">
                <stop offset="0" stop-color="lightgray" />
                <stop offset="0.02" stop-color="lightgray" />
                <stop offset="0" stop-color="transparent" />
                <stop offset="1" stop-color="transparent" />
            </radialGradient>
            <mask id="satori_mask_id_0">
                <rect x="0" y="0" width="100" height="100" fill="#fff" />
            </mask>
            <rect x="0" y="0" width="100" height="100" fill="transparent" />
            <circle cx="25" cy="25" width="100" height="100" r="106.06601717798213" fill="url(#satori_radial_id_0)"
                mask="url(#satori_mask_id_0)" />
        </pattern>
    </defs>
    <mask id="satori_om-id">
        <rect x="0" y="0" width="800" height="400" fill="#fff" />
    </mask>
    <rect x="0" y="0" width="800" height="400" fill="white" />
    <rect x="0" y="0" width="800" height="400" fill="url(#satori_pattern_id_1)" />
    <rect x="0" y="0" width="800" height="400" fill="url(#satori_pattern_id_0)" />
    <mask id="satori_om-id-0">
        <rect x="174" y="125" width="150" height="150" fill="#fff" />
    </mask>
    <clipPath id="satori_cp-id-0-0">
        <rect x="174" y="125" width="150" height="150" />
    </clipPath>
    <mask id="satori_om-id-0-0">
        <rect x="174" y="125" width="150" height="150" fill="#fff" />
    </mask>
    <image x="174" y="125" width="150" height="150"
        href="data:image/svg+xml;utf8,%3Csvg  xmlns=%22http://www.w3.org/2000/svg%22 version=%221.1%22 width=%22NaN%22 height=%22null%22 viewBox=%220 0 1000 1000%22%3E%3Cdefs%3E%3CclipPath id=%22clip_0%22%3E%3Cpath transform=%22matrix(1,0,0,-1,0,1000)%22 d=%22M0 1000H1000V0H0Z%22%3E%3C/path%3E%3C/clipPath%3E%3C/defs%3E%3Cg id=%22layer_1%22 data-name=%22%22%3E%3Cg clip-path=%22url(%23clip_0)%22%3E%3Cpath transform=%22matrix(1,0,0,-1,499.8652,981.8184)%22 d=%22M0 0C-3.024 0-5.991 .339-8.802 .997L-9.831 1.235-10.816 1.612C-11.537 1.895-12.271 2.108-12.717 2.227L-13.005 2.277-13.896 2.528C-88.296 23.833-121.289 72.454-135.405 104.801-140.285 99.971-144.219 96.777-145.098 96.068-148.002 93.778-151.553 92.542-155.166 92.542-159.671 92.542-164 94.443-167.042 97.756-219.208 154.477-193.843 212-189.703 220.375-186.717 227.319-185.562 240.494-185.531 247.251-185.531 260.79-187.708 272.207-190.65 281.455L-198.128 258.368C-199.785 253.286-203.8 249.384-208.907 247.878-210.387 247.433-211.931 247.213-213.474 247.213-217.138 247.213-220.726 248.48-223.581 250.771-278.256 295.552-292.322 359.286-294.517 404.883-295.64 428.259-293.82 449.389-291.619 465.061-293.407 464.909-295.208 464.834-297.02 464.834-338.571 464.834-369.826 504.49-371.131 506.178L-371.282 506.378C-378.766 516.347-390.052 523.963-392.379 525.476-402.072 530.544-406.382 537.295-405.197 545.557-404.463 550.765-401.401 555.175-396.929 557.734-360.804 585.463-327.787 599.303-302.158 606.11-322.372 615.471-389.212 650.76-417.989 719.356-438.654 768.617-436.044 824.104-410.222 884.278-407.668 890.219-401.859 894.053-395.41 894.053H-394.513L-393.509 893.939C-386.495 893.158-380.842 887.895-379.538 880.853-379.5 880.646-373.408 849.846-354.525 818.649-340.032 794.709-315 765.963-274.762 754.464-275.137 757.416-275.207 759.815-275.207 761.202-275.207 784.147-255.187 810.682-214.007 842.323-185.964 863.867-157.713 880.338-153.736 882.628-131.659 896.16-115.555 920.625-115.398 920.873-112.474 925.43-107.399 928.209-101.878 928.209H-100.993L-100.184 928.122C-94.425 927.517-89.525 923.953-87.173 918.727-36.042 961.237-6.029 963.637 .037 963.637 6.136 963.637 36.268 961.237 87.43 918.724 89.758 923.934 94.676 927.523 100.467 928.122L101.25 928.203 102.129 928.209C107.656 928.209 112.737 925.43 115.718 920.779 115.817 920.627 131.922 896.16 154.024 882.616 158.015 880.319 186.233 863.867 214.271 842.323 255.451 810.682 275.464 784.147 275.464 761.202 275.464 759.815 275.395 757.416 275.018 754.464 315.264 765.963 340.296 794.709 354.781 818.649 373.665 849.846 379.757 880.646 379.819 880.953 381.137 887.926 386.79 893.162 393.879 893.952L394.714 894.043 395.66 894.049C402.147 894.049 407.982 890.191 410.511 884.218 436.308 824.101 438.917 768.614 418.252 719.356 389.487 650.782 322.686 615.496 302.422 606.11 328.049 599.303 361.074 585.463 397.204 557.722 401.646 555.175 404.694 550.796 405.454 545.62 406.646 537.301 402.311 530.532 392.567 525.437 387.787 522.351 377.913 514.86 371.563 506.391L371.388 506.165C370.07 504.477 338.684 464.834 297.289 464.834 295.477 464.834 293.676 464.909 291.882 465.061 294.084 449.395 295.903 428.284 294.78 404.883 292.584 359.286 278.52 295.545 223.963 250.865 221.14 248.531 217.489 247.213 213.743 247.213 212.187 247.213 210.65 247.439 209.164 247.878 204.151 249.303 200.067 253.236 198.398 258.355L190.907 281.448C187.971 272.195 185.795 260.771 185.795 247.213 185.819 240.513 186.986 227.369 189.979 220.355 194.326 211.735 219.791 154.827 167.306 97.756 164.206 94.425 159.896 92.542 155.43 92.542 151.784 92.542 148.209 93.797 145.367 96.063 144.482 96.771 140.549 99.971 135.667 104.795 121.552 72.454 88.578 23.84 14.216 2.547L13.688 2.39 13.318 2.314C12.93 2.221 11.951 1.951 11.022 1.594L9.78 1.11 8.476 .854C5.64 .289 2.791 0 0 0%22 fill=%22%23ff5910%22%3E%3C/path%3E%3Cpath transform=%22matrix(1,0,0,-1,904.1201,256.58979)%22 d=%22M0 0C19.01 45.318 16.412 96.815-7.722 153.065-7.886 153.45-8.287 153.68-8.694 153.633-9.108 153.588-9.447 153.275-9.529 152.864-9.592 152.535-15.916 119.538-36.48 85.561-55.276 54.499-90.152 16.277-149.727 9.853-149.488 12.086-150.153 14.856-150.485 16.073-144.042 22.459-143.974 35.415-143.974 35.973-143.974 78.38-253.342 141.666-257.979 144.325-283.418 159.844-301.147 187.09-301.323 187.362-301.518 187.664-301.869 187.827-302.22 187.792-302.578 187.755-302.885 187.523-303.011 187.187-305.087 181.741-305.896 168.78-306.147 163.673-368.27 222.539-402.593 223.227-404.218 223.227-405.654 223.227-439.983 222.539-502.105 163.673-502.35 168.78-503.166 181.741-505.242 187.187-505.368 187.523-505.675 187.755-506.026 187.792-506.384 187.833-506.729 187.664-506.924 187.362-507.099 187.09-524.829 159.844-550.249 144.341-554.904 141.666-664.279 78.38-664.279 35.973-664.279 35.415-664.204 22.459-657.755 16.073-658.093 14.856-658.758 12.086-658.52 9.853-718.095 16.277-752.97 54.499-771.766 85.561-792.331 119.538-798.661 152.535-798.724 152.864-798.799 153.275-799.131 153.588-799.552 153.633-799.972 153.683-800.361 153.448-800.524 153.065-824.659 96.815-827.256 45.318-808.248 0-776.772-75.011-695.798-107.242-695.026-107.543-675.007-116.364-663.526-123.353-657.083-128.089-658.445-128.02-660.083-127.97-661.977-127.97-681.055-127.97-732.01-133.089-793.122-180.455-793.705-180.631-794.32-181.064-794.426-181.823-794.621-183.191-793.052-184.577-789.082-186.56-788.925-186.654-773.616-196.114-763.396-209.741-763.115-210.099-735.322-245.212-701.275-245.212-692.705-245.212-684.38-242.991-676.494-238.625-678.533-247.201-685.516-279.993-683.608-319.611-681.557-362.141-668.577-421.465-618.331-462.619-618.093-462.814-617.767-462.883-617.465-462.789-617.164-462.708-616.926-462.475-616.832-462.174L-598.412-405.379C-593.644-410.874-574.604-435.511-574.604-478.016-574.604-478.222-574.673-498.837-580.175-511.24-580.469-511.761-608.889-564.165-560.124-617.196-559.785-617.561-559.221-617.604-558.832-617.297-558.091-616.707-541.661-603.457-534.195-588.789-530.863-604.718-510.104-680.579-413.973-708.102-413.936-708.107-411.896-708.565-409.606-709.45-407.21-710.009-403.477-710.423-398.734-709.482-396.4-708.578-394.286-708.102-394.217-708.089-298.137-680.579-277.39-604.718-274.051-588.795-266.586-603.457-250.155-616.707-249.415-617.297-249.032-617.604-248.468-617.561-248.122-617.196-199.357-564.165-227.777-511.761-228.028-511.315-233.574-498.837-233.643-478.222-233.643-478.016-233.643-435.511-214.603-410.874-209.841-405.379L-191.415-462.174C-191.32-462.475-191.082-462.708-190.781-462.789-190.48-462.883-190.154-462.814-189.916-462.619-139.67-421.465-126.689-362.141-124.638-319.611-122.737-279.993-129.714-247.201-131.759-238.625-123.873-242.991-115.548-245.212-106.978-245.212H-106.966C-72.918-245.212-45.132-210.099-44.843-209.729-34.643-196.127-19.322-186.654-19.241-186.604-15.194-184.577-13.626-183.191-13.82-181.823-13.933-181.064-14.548-180.631-15.125-180.455-76.237-133.089-127.191-127.97-146.276-127.97-148.164-127.97-149.802-128.02-151.163-128.089-144.72-123.353-133.252-116.37-113.264-107.562-112.448-107.242-31.468-75.011 0 0%22 fill=%22%23221e1f%22%3E%3C/path%3E%3Cpath transform=%22matrix(1,0,0,-1,490.3105,441.96443)%22 d=%22M0 0C-.49 2.78-6.876 19.851-87.856 48.897-88.459 49.136-147.99 72.756-147.99 104.005-147.99 104.382-148.215 104.733-148.573 104.877-148.924 105.028-149.332 104.946-149.608 104.67-149.909 104.369-156.384 97.631-151.384 81.482-164.985 96.408-218.066 156.832-217.257 189.377-217.244 189.841-217.571 190.246-218.022 190.334-218.474 190.422-218.926 190.171-219.089 189.738-219.315 189.154-240.325 130.333-173.467 40.879-172.877 39.926-158.58 17.548-112.625 17.548-110.843 17.548-109.023 17.58-107.173 17.655H-105.58C-93.277 17.655-30.44 16.751-1.406-1.185-1.249-1.279-1.079-1.33-.904-1.33H-.885C-.427-1.317 .082-.91 .082-.376 .082-.244 .05-.112 0 0%22 fill=%22%23002d72%22%3E%3C/path%3E%3Cpath transform=%22matrix(1,0,0,-1,355.1821,548.96096)%22 d=%22M0 0C13.388 0 21.582 6.92 21.92 7.208 22.253 7.497 22.347 7.968 22.152 8.362-2.391 57.435-80.949 92.9-81.739 93.251-82.097 93.408-82.512 93.333-82.793 93.063-83.07 92.793-83.151 92.379-83 92.016-51.105 15.966-20.258 0 0 0%22 fill=%22%23ffffff%22%3E%3C/path%3E%3Cpath transform=%22matrix(1,0,0,-1,383.1499,576.2578)%22 d=%22M0 0C-2.804 3.99-6.386 3.751-6.669 3.727-75.974 7.904-95.404 64.061-95.592 64.625-95.736 65.058-96.169 65.321-96.614 65.271-97.066 65.208-97.411 64.845-97.443 64.393-101.238 9.373-63.157-10.967-62.899-11.079-14.599-46.989-12.685-73.991-12.672-74.256-12.647-74.707-12.309-75.083-11.864-75.146-11.819-75.158-11.769-75.158-11.726-75.158-11.331-75.158-10.966-74.907-10.834-74.531 6.782-25.214 4.781-6.781 0 0%22 fill=%22%23002d72%22%3E%3C/path%3E%3Cpath transform=%22matrix(1,0,0,-1,238.8809,443.8838)%22 d=%22M0 0C-13.275 7.34-28.257 11.054-44.524 11.054-65.233 11.054-80.842 4.856-80.999 4.793-81.394 4.63-81.639 4.229-81.589 3.802-81.532 3.375-81.2 3.037-80.773 2.974-68.69 1.305-48.414-10.627-44.373-13.062-45.735-14.605-51.895-16.612-57.573-17.691-57.887-17.748-58.144-17.961-58.27-18.256-58.396-18.551-58.364-18.883-58.188-19.147-46.682-36.399-34.06-40.026-25.49-40.026-18.043-40.026-13.03-37.366-12.817-37.253-12.56-37.109-12.378-36.858-12.333-36.563-10.477-24.969 .295-1.468 .402-1.229 .608-.778 .433-.238 0 0%22 fill=%22%23ff5910%22%3E%3C/path%3E%3Cpath transform=%22matrix(1,0,0,-1,242.6895,263.4756)%22 d=%22M0 0C0 0-2.849-61.202 15.182-94.415 15.182-94.415-174.917-56.776-139.489 118.457-139.489 118.457-95.837 8.699 0 0%22 fill=%22%23ffffff%22%3E%3C/path%3E%3Cpath transform=%22matrix(1,0,0,-1,682.8047,432.02644)%22 d=%22M0 0C-.345 .188-.771 .151-1.073-.101-1.255-.25-19.85-15.12-87.8-17.905-91.451-18.056-172.946-21.694-182.808-48.42-192.67-21.694-274.165-18.056-277.81-17.905-345.766-15.12-364.361-.25-364.543-.101-364.845 .151-365.271 .188-365.61 0-365.955-.188-366.143-.571-366.093-.96-363.226-21.029-339.248-40.597-338.257-41.394-289.492-83.822-273.845-137.531-269.315-175.11-264.396-215.89-271.116-247.025-271.191-247.333-271.26-247.678-271.147-248.029-270.877-248.261-244.02-271.329-222-283.029-205.437-283.029-191.102-283.029-184.916-274.059-182.808-269.861-180.7-274.059-174.514-283.029-160.179-283.029-143.61-283.029-121.596-271.329-94.738-248.261-94.468-248.029-94.35-247.678-94.431-247.333-94.493-247.025-101.219-215.945-96.313-175.179-91.789-137.575-76.149-83.842-27.385-41.419-26.368-40.597-2.39-21.029 .478-.96 .533-.571 .339-.188 0 0%22 fill=%22%23002d72%22%3E%3C/path%3E%3Cpath transform=%22matrix(1,0,0,-1,509.6768,441.96443)%22 d=%22M0 0C.496 2.78 6.883 19.851 87.863 48.897 88.465 49.136 147.99 72.756 147.99 104.005 147.99 104.382 148.222 104.733 148.58 104.877 148.931 105.028 149.339 104.946 149.608 104.67 149.916 104.369 156.391 97.631 151.384 81.482 164.985 96.408 218.079 156.832 217.264 189.377 217.251 189.841 217.577 190.246 218.028 190.334 218.474 190.422 218.938 190.171 219.102 189.738 219.314 189.154 240.332 130.333 173.474 40.879 172.884 39.926 158.586 17.548 112.631 17.548 110.85 17.548 109.023 17.58 107.18 17.655H105.586C93.283 17.655 30.446 16.751 1.411-1.185 1.255-1.279 1.086-1.33 .91-1.33H.892C.427-1.317-.075-.91-.075-.376-.075-.244-.05-.112 0 0%22 fill=%22%23002d72%22%3E%3C/path%3E%3Cpath transform=%22matrix(1,0,0,-1,644.8115,548.9678)%22 d=%22M0 0C-13.388 0-21.581 6.927-21.926 7.215-22.253 7.504-22.347 7.968-22.152 8.357 2.39 57.442 80.949 92.907 81.739 93.258 82.091 93.415 82.511 93.34 82.787 93.07 83.069 92.8 83.151 92.386 83.001 92.022 51.111 15.967 20.258 0 0 0%22 fill=%22%23ffffff%22%3E%3C/path%3E%3Cpath transform=%22matrix(1,0,0,-1,616.8379,576.2578)%22 d=%22M0 0C2.811 3.99 6.393 3.751 6.675 3.727 75.974 7.904 95.409 64.061 95.598 64.625 95.742 65.058 96.168 65.321 96.62 65.271 97.065 65.208 97.417 64.845 97.442 64.393 101.237 9.373 63.156-10.967 62.905-11.079 14.604-46.996 12.691-73.991 12.679-74.256 12.653-74.707 12.314-75.083 11.869-75.152 11.819-75.158 11.775-75.158 11.731-75.158 11.33-75.158 10.973-74.914 10.834-74.531-6.776-25.22-4.774-6.781 0 0%22 fill=%22%23002d72%22%3E%3C/path%3E%3Cpath transform=%22matrix(1,0,0,-1,587.376,698.54397)%22 d=%22M0 0C-.15 .031-.32 .05-.514 .05-2.584 .05-10.295-1.863-37.366-19.611-37.591-19.774-60.591-36.324-87.235-36.324-87.285-36.324-87.329-36.343-87.379-36.355-87.429-36.343-87.474-36.324-87.53-36.324-114.149-36.324-137.16-19.774-137.43-19.58-164.458-1.863-172.18 .05-174.238 .05-174.439 .05-174.608 .031-174.759 0-203.85-.082-206.465-28.251-206.491-28.607-206.491-87.988-164.608-107.794-164.187-107.988-163.924-108.102-163.617-108.089-163.365-107.951-163.115-107.813-162.945-107.556-162.907-107.273-161.684-97.486-166.126-66.093-167.224-58.628-98.17-85.836-88.508-128.711-88.414-129.137-88.327-129.563-87.957-129.865-87.53-129.865-87.492-129.865-87.467-129.858-87.436-129.858-87.417-129.858-87.397-129.846-87.379-129.84-87.36-129.846-87.342-129.858-87.323-129.858-87.291-129.858-87.26-129.865-87.235-129.865-86.808-129.865-86.432-129.563-86.344-129.137-86.256-128.711-76.588-85.836-7.541-58.628-8.632-66.093-13.074-97.486-11.851-107.273-11.813-107.556-11.644-107.813-11.393-107.951-11.135-108.089-10.834-108.107-10.571-107.988-10.15-107.794 31.732-87.988 31.727-28.532 31.707-28.251 29.092-.082 0 0%22 fill=%22%23ff5910%22%3E%3C/path%3E%3Cpath transform=%22matrix(1,0,0,-1,568.9756,862.85159)%22 d=%22M0 0C-41.187 25.904-63.929 27.215-68.069 27.215-68.602 27.215-68.916 27.196-68.935 27.19-69.042 27.196-69.355 27.215-69.888 27.215-74.029 27.215-96.771 25.904-138.014-.031-138.454-.356-148.949-8.017-149.551-15.552-149.746-17.898-148.975-19.987-147.262-21.757-146.929-22.39-145.756-23.928-142.136-23.928-138.265-23.928-132.719-22.184-125.648-18.732-125.448-18.639-105.19-8.87-68.979-8.87-32.811-8.87-12.51-18.639-12.309-18.739-5.238-22.184 .308-23.928 4.179-23.928 7.792-23.928 8.972-22.39 9.304-21.757 11.011-19.987 11.782-17.898 11.601-15.552 10.991-8.017 .502-.356 0 0%22 fill=%22%23002d72%22%3E%3C/path%3E%3Cpath transform=%22matrix(1,0,0,-1,761.1123,443.8838)%22 d=%22M0 0C13.275 7.34 28.251 11.054 44.524 11.054 65.234 11.054 80.843 4.856 81 4.793 81.401 4.63 81.633 4.229 81.583 3.802 81.533 3.375 81.2 3.037 80.773 2.974 68.69 1.305 48.414-10.627 44.374-13.062 45.735-14.605 51.896-16.612 57.574-17.691 57.882-17.748 58.145-17.961 58.271-18.256 58.39-18.551 58.364-18.883 58.183-19.147 46.683-36.399 34.061-40.026 25.49-40.026 18.044-40.026 13.03-37.366 12.817-37.253 12.561-37.109 12.379-36.858 12.334-36.563 10.478-24.969-.294-1.468-.401-1.229-.607-.778-.433-.238 0 0%22 fill=%22%23ff5910%22%3E%3C/path%3E%3Cpath transform=%22matrix(1,0,0,-1,757.3047,263.4756)%22 d=%22M0 0C0 0 2.842-61.202-15.183-94.415-15.183-94.415 174.909-56.776 139.488 118.457 139.488 118.457 95.836 8.699 0 0%22 fill=%22%23ffffff%22%3E%3C/path%3E%3C/g%3E%3C/g%3E%3C/svg%3E"
        preserveAspectRatio="none" clip-path="url(#satori_cp-id-0-0)" mask="url(#satori_om-id-0-0)" />
    <mask id="satori_om-id-0-0-0">
        <rect x="174" y="125" width="0" height="150" fill="#fff" />
    </mask>
    <mask id="satori_om-id-0-0-0-0">
        <rect x="174" y="125" width="0" height="150" fill="#fff" />
    </mask>
    <mask id="satori_om-id-0-0-0-0-0">
        <rect x="174" y="125" width="0" height="150" fill="#fff" />
    </mask>
    <mask id="satori_om-id-0-0-1">
        <rect x="174" y="125" width="0" height="150" fill="#fff" />
    </mask>
    <mask id="satori_om-id-0-0-1-0">
        <rect x="174" y="125" width="0" height="150" fill="#fff" />
    </mask>
    <mask id="satori_om-id-0-0-1-0-0">
        <rect x="174" y="125" width="0" height="150" fill="#fff" />
    </mask>
    <mask id="satori_om-id-0-0-1-0-1">
        <rect x="174" y="125" width="0" height="150" fill="#fff" />
    </mask>
    <mask id="satori_om-id-0-0-1-0-2">
        <rect x="174" y="125" width="0" height="150" fill="#fff" />
    </mask>
    <mask id="satori_om-id-0-0-1-0-3">
        <rect x="174" y="125" width="0" height="150" fill="#fff" />
    </mask>
    <mask id="satori_om-id-0-0-1-0-4">
        <rect x="174" y="125" width="0" height="150" fill="#fff" />
    </mask>
    <mask id="satori_om-id-0-0-1-0-5">
        <rect x="174" y="125" width="0" height="150" fill="#fff" />
    </mask>
    <mask id="satori_om-id-0-0-1-0-6">
        <rect x="174" y="125" width="0" height="150" fill="#fff" />
    </mask>
    <mask id="satori_om-id-0-0-1-0-7">
        <rect x="174" y="125" width="0" height="150" fill="#fff" />
    </mask>
    <mask id="satori_om-id-0-0-1-0-8">
        <rect x="174" y="125" width="0" height="150" fill="#fff" />
    </mask>
    <mask id="satori_om-id-0-0-1-0-9">
        <rect x="174" y="125" width="0" height="150" fill="#fff" />
    </mask>
    <mask id="satori_om-id-0-0-1-0-10">
        <rect x="174" y="125" width="0" height="150" fill="#fff" />
    </mask>
    <mask id="satori_om-id-0-0-1-0-11">
        <rect x="174" y="125" width="0" height="150" fill="#fff" />
    </mask>
    <mask id="satori_om-id-0-0-1-0-12">
        <rect x="174" y="125" width="0" height="150" fill="#fff" />
    </mask>
    <mask id="satori_om-id-0-0-1-0-13">
        <rect x="174" y="125" width="0" height="150" fill="#fff" />
    </mask>
    <mask id="satori_om-id-0-0-1-0-14">
        <rect x="174" y="125" width="0" height="150" fill="#fff" />
    </mask>
    <mask id="satori_om-id-1">
        <rect x="324" y="132" width="302" height="136" fill="#fff" />
    </mask>
    <mask id="satori_om-id-1-0">
        <rect x="324" y="132" width="302" height="55" fill="#fff" />
    </mask>
    <mask id="satori_om-id-1-0-0">
        <rect x="324" y="132" width="178" height="55" fill="#fff" />
    </mask>
    <path fill="black"
        d="M331.7 151.1L325.1 151.1L325.1 147.3L343.0 147.3L343.0 151.1L336.3 151.1L336.3 169.2L331.7 169.2L331.7 151.1ZM350.4 159.7L350.4 159.7L350.4 169.2L345.9 169.2L345.9 147.3L350.3 147.3L350.3 155.7L350.5 155.7Q351.0 154.2 352.3 153.4Q353.5 152.6 355.4 152.6L355.4 152.6Q357.1 152.6 358.3 153.3Q359.6 154.1 360.3 155.4Q361.0 156.8 361.0 158.7L361.0 158.7L361.0 169.2L356.5 169.2L356.5 159.5Q356.5 158.0 355.7 157.2Q354.9 156.4 353.6 156.4L353.6 156.4Q352.6 156.4 351.9 156.7Q351.2 157.1 350.8 157.9Q350.4 158.6 350.4 159.7ZM372.0 169.5L372.0 169.5Q369.5 169.5 367.7 168.4Q365.9 167.4 364.9 165.5Q363.9 163.6 363.9 161.0L363.9 161.0Q363.9 158.5 364.9 156.6Q365.9 154.7 367.7 153.6Q369.5 152.6 371.9 152.6L371.9 152.6Q373.5 152.6 374.9 153.1Q376.3 153.6 377.3 154.6Q378.4 155.7 379.0 157.2Q379.6 158.8 379.6 160.9L379.6 160.9L379.6 162.1L365.7 162.1L365.7 159.3L375.3 159.3Q375.3 158.3 374.9 157.6Q374.4 156.8 373.7 156.4Q372.9 156.0 371.9 156.0L371.9 156.0Q370.9 156.0 370.1 156.4Q369.3 156.9 368.9 157.7Q368.4 158.5 368.4 159.5L368.4 159.5L368.4 162.1Q368.4 163.4 368.9 164.2Q369.3 165.1 370.2 165.6Q371.0 166.1 372.1 166.1L372.1 166.1Q372.9 166.1 373.5 165.9Q374.1 165.7 374.6 165.2Q375.0 164.8 375.3 164.2L375.3 164.2L379.5 164.5Q379.1 166.0 378.2 167.1Q377.2 168.2 375.6 168.9Q374.1 169.5 372.0 169.5Z M408.8 155.0L408.8 155.0L404.1 155.0Q404.0 154.1 403.6 153.4Q403.2 152.7 402.6 152.2Q402.0 151.7 401.2 151.4Q400.4 151.1 399.4 151.1L399.4 151.1Q397.8 151.1 396.5 152.0Q395.2 152.8 394.5 154.4Q393.9 156.0 393.9 158.2L393.9 158.2Q393.9 160.6 394.6 162.2Q395.3 163.8 396.5 164.6Q397.8 165.4 399.4 165.4L399.4 165.4Q400.3 165.4 401.1 165.1Q401.9 164.9 402.5 164.4Q403.2 163.9 403.6 163.3Q404.0 162.6 404.1 161.7L404.1 161.7L408.8 161.7Q408.6 163.2 407.9 164.6Q407.2 166.0 406.0 167.1Q404.8 168.2 403.1 168.8Q401.4 169.5 399.3 169.5L399.3 169.5Q396.4 169.5 394.1 168.1Q391.8 166.8 390.5 164.3Q389.2 161.8 389.2 158.2L389.2 158.2Q389.2 154.7 390.5 152.2Q391.9 149.7 394.2 148.4Q396.5 147.0 399.3 147.0L399.3 147.0Q401.2 147.0 402.9 147.6Q404.5 148.1 405.7 149.1Q407.0 150.1 407.8 151.6Q408.6 153.1 408.8 155.0ZM416.7 169.5L416.7 169.5Q415.1 169.5 413.9 168.9Q412.7 168.4 412.0 167.3Q411.3 166.2 411.3 164.6L411.3 164.6Q411.3 163.2 411.8 162.3Q412.3 161.4 413.1 160.8Q414 160.2 415.1 160.0Q416.2 159.7 417.4 159.5L417.4 159.5Q418.8 159.4 419.7 159.3Q420.6 159.1 421.0 158.9Q421.4 158.6 421.4 158.1L421.4 158.1L421.4 158.0Q421.4 157.0 420.7 156.4Q420.1 155.9 419.0 155.9L419.0 155.9Q417.7 155.9 417.0 156.4Q416.3 157.0 416.0 157.8L416.0 157.8L411.8 157.4Q412.2 155.9 413.1 154.9Q414.0 153.8 415.5 153.2Q417.0 152.6 419.0 152.6L419.0 152.6Q420.3 152.6 421.6 152.9Q422.8 153.2 423.8 153.9Q424.8 154.6 425.4 155.6Q425.9 156.7 425.9 158.1L425.9 158.1L425.9 169.2L421.6 169.2L421.6 166.9L421.5 166.9Q421.1 167.7 420.4 168.2Q419.8 168.8 418.8 169.1Q417.9 169.5 416.7 169.5ZM418.0 166.3L418.0 166.3Q419.0 166.3 419.8 165.9Q420.5 165.5 421.0 164.9Q421.4 164.2 421.4 163.3L421.4 163.3L421.4 161.6Q421.2 161.7 420.8 161.8Q420.5 161.9 420.0 162.0Q419.6 162.1 419.1 162.2Q418.6 162.3 418.3 162.3L418.3 162.3Q417.5 162.4 416.9 162.7Q416.3 162.9 415.9 163.4Q415.6 163.8 415.6 164.4L415.6 164.4Q415.6 165.4 416.3 165.8Q417.0 166.3 418.0 166.3ZM429.4 147.3L434.0 147.3L434.0 169.2L429.4 169.2L429.4 147.3ZM445.0 175.6L445.0 175.6Q442.8 175.6 441.2 175.0Q439.6 174.4 438.7 173.4Q437.8 172.4 437.5 171.1L437.5 171.1L441.7 170.5Q441.9 171.0 442.3 171.4Q442.7 171.9 443.4 172.1Q444.1 172.4 445.1 172.4L445.1 172.4Q446.6 172.4 447.5 171.7Q448.5 170.9 448.5 169.3L448.5 169.3L448.5 166.3L448.3 166.3Q448.0 166.9 447.4 167.5Q446.8 168.2 445.9 168.5Q444.9 168.9 443.6 168.9L443.6 168.9Q441.8 168.9 440.3 168.1Q438.8 167.2 437.9 165.4Q437.0 163.7 437.0 160.9L437.0 160.9Q437.0 158.2 437.9 156.3Q438.8 154.4 440.3 153.5Q441.8 152.6 443.6 152.6L443.6 152.6Q445.0 152.6 445.9 153.0Q446.9 153.5 447.4 154.2Q448.0 154.9 448.3 155.5L448.3 155.5L448.5 155.5L448.5 152.8L453.0 152.8L453.0 169.3Q453.0 171.4 452.0 172.8Q450.9 174.2 449.1 174.9Q447.3 175.6 445.0 175.6ZM445.1 165.5L445.1 165.5Q446.2 165.5 446.9 165.0Q447.7 164.4 448.1 163.4Q448.5 162.4 448.5 160.9L448.5 160.9Q448.5 159.5 448.1 158.4Q447.7 157.4 446.9 156.8Q446.2 156.2 445.1 156.2L445.1 156.2Q444.0 156.2 443.2 156.8Q442.4 157.4 442.0 158.5Q441.6 159.5 441.6 160.9L441.6 160.9Q441.6 162.3 442.0 163.4Q442.4 164.4 443.2 165.0Q444.0 165.5 445.1 165.5ZM461.3 169.5L461.3 169.5Q459.7 169.5 458.5 168.9Q457.3 168.4 456.5 167.3Q455.8 166.2 455.8 164.6L455.8 164.6Q455.8 163.2 456.3 162.3Q456.8 161.4 457.7 160.8Q458.6 160.2 459.7 160.0Q460.8 159.7 462.0 159.5L462.0 159.5Q463.4 159.4 464.3 159.3Q465.2 159.1 465.6 158.9Q465.9 158.6 465.9 158.1L465.9 158.1L465.9 158.0Q465.9 157.0 465.3 156.4Q464.7 155.9 463.5 155.9L463.5 155.9Q462.3 155.9 461.6 156.4Q460.8 157.0 460.6 157.8L460.6 157.8L456.4 157.4Q456.7 155.9 457.7 154.9Q458.6 153.8 460.1 153.2Q461.6 152.6 463.5 152.6L463.5 152.6Q464.9 152.6 466.2 152.9Q467.4 153.2 468.4 153.9Q469.4 154.6 469.9 155.6Q470.5 156.7 470.5 158.1L470.5 158.1L470.5 169.2L466.2 169.2L466.2 166.9L466.1 166.9Q465.7 167.7 465.0 168.2Q464.3 168.8 463.4 169.1Q462.5 169.5 461.3 169.5ZM462.6 166.3L462.6 166.3Q463.6 166.3 464.3 165.9Q465.1 165.5 465.5 164.9Q466.0 164.2 466.0 163.3L466.0 163.3L466.0 161.6Q465.8 161.7 465.4 161.8Q465.0 161.9 464.6 162.0Q464.1 162.1 463.7 162.2Q463.2 162.3 462.8 162.3L462.8 162.3Q462.0 162.4 461.4 162.7Q460.8 162.9 460.5 163.4Q460.2 163.8 460.2 164.4L460.2 164.4Q460.2 165.4 460.8 165.8Q461.5 166.3 462.6 166.3ZM478.5 169.2L474.0 169.2L474.0 152.8L478.4 152.8L478.4 155.6L478.6 155.6Q479.0 154.1 480.1 153.3Q481.1 152.6 482.5 152.6L482.5 152.6Q482.9 152.6 483.2 152.6Q483.6 152.6 483.9 152.7L483.9 152.7L483.9 156.7Q483.6 156.6 483.1 156.6Q482.5 156.5 482.0 156.5L482.0 156.5Q481.0 156.5 480.2 156.9Q479.5 157.4 479.0 158.1Q478.5 158.9 478.5 159.9L478.5 159.9L478.5 169.2ZM489.6 175.3L489.6 175.3Q488.7 175.3 488.0 175.2Q487.2 175.0 486.7 174.8L486.7 174.8L487.8 171.4Q488.6 171.7 489.2 171.7Q489.8 171.7 490.3 171.4Q490.8 171.1 491.1 170.3L491.1 170.3L491.4 169.6L485.5 152.8L490.3 152.8L493.6 164.8L493.8 164.8L497.2 152.8L502.0 152.8L495.7 170.9Q495.2 172.2 494.4 173.2Q493.7 174.2 492.5 174.8Q491.3 175.3 489.6 175.3Z " />
    <mask id="satori_om-id-1-1">
        <rect x="324" y="186" width="302" height="81" fill="#fff" />
    </mask>
    <mask id="satori_om-id-1-1-0">
        <rect x="324" y="186" width="302" height="81" fill="#fff" />
    </mask>
    <path fill="black"
        d="M353.9 252.8L329.1 252.8L329.1 194.6L352.4 194.6Q358.8 194.6 363.1 196.5Q367.4 198.4 369.5 201.8Q371.7 205.2 371.7 209.5L371.7 209.5Q371.7 213.0 370.3 215.5Q368.9 218.1 366.6 219.7Q364.2 221.4 361.2 222.0L361.2 222.0L361.2 222.6Q364.5 222.8 367.4 224.5Q370.3 226.2 372.1 229.3Q373.9 232.4 373.9 236.7L373.9 236.7Q373.9 241.4 371.7 245.0Q369.4 248.6 364.9 250.7Q360.4 252.8 353.9 252.8L353.9 252.8ZM341.4 227.3L341.4 242.8L351.4 242.8Q356.5 242.8 358.9 240.8Q361.2 238.8 361.2 235.5L361.2 235.5Q361.2 233.1 360.1 231.2Q358.9 229.4 356.8 228.4Q354.6 227.3 351.7 227.3L351.7 227.3L341.4 227.3ZM341.4 204.6L341.4 219.0L350.5 219.0Q353.0 219.0 355.0 218.1Q357.0 217.2 358.1 215.5Q359.3 213.9 359.3 211.6L359.3 211.6Q359.3 208.4 357.0 206.5Q354.8 204.6 350.7 204.6L350.7 204.6L341.4 204.6ZM381.9 194.6L394.2 194.6L394.2 252.8L381.9 252.8L381.9 194.6ZM447.7 211.4L435.9 211.4Q435.6 207.9 433.0 206.0Q430.4 204.1 426.0 204.1L426.0 204.1Q423.0 204.1 420.9 205.0Q418.8 205.8 417.7 207.3Q416.6 208.7 416.6 210.6L416.6 210.6Q416.6 212.2 417.3 213.4Q418.0 214.5 419.3 215.4Q420.6 216.2 422.3 216.8Q423.9 217.4 425.8 217.8L425.8 217.8L431.1 219.1Q434.9 219.9 438.1 221.4Q441.2 222.8 443.6 224.9Q445.9 226.9 447.2 229.7Q448.5 232.6 448.5 236.2L448.5 236.2Q448.5 241.5 445.8 245.4Q443.1 249.3 438.1 251.5Q433.0 253.6 425.9 253.6L425.9 253.6Q418.9 253.6 413.7 251.5Q408.5 249.3 405.5 245.1Q402.6 240.8 402.5 234.5L402.5 234.5L414.4 234.5Q414.6 237.5 416.1 239.4Q417.6 241.4 420.1 242.3Q422.6 243.3 425.8 243.3L425.8 243.3Q428.9 243.3 431.2 242.4Q433.5 241.5 434.8 239.9Q436.1 238.3 436.1 236.2L436.1 236.2Q436.1 234.2 435.0 232.9Q433.8 231.5 431.6 230.6Q429.4 229.7 426.2 228.9L426.2 228.9L419.9 227.3Q412.5 225.5 408.3 221.7Q404 217.9 404.0 211.4L404.0 211.4Q404 206.2 406.9 202.2Q409.7 198.3 414.7 196.1Q419.7 193.8 426.1 193.8L426.1 193.8Q432.6 193.8 437.4 196.1Q442.2 198.3 444.9 202.2Q447.6 206.2 447.7 211.4L447.7 211.4ZM510.2 223.7L510.2 223.7Q510.2 233.2 506.6 239.9Q503.0 246.6 496.9 250.1Q490.7 253.6 483.0 253.6L483.0 253.6Q475.2 253.6 469.1 250.1Q462.9 246.6 459.3 239.9Q455.7 233.2 455.7 223.7L455.7 223.7Q455.7 214.2 459.3 207.5Q462.9 200.9 469.1 197.3Q475.2 193.8 483.0 193.8L483.0 193.8Q490.7 193.8 496.9 197.3Q503.0 200.9 506.6 207.5Q510.2 214.2 510.2 223.7ZM497.8 223.7L497.8 223.7Q497.8 217.6 495.9 213.3Q494.1 209.1 490.8 206.9Q487.4 204.7 483.0 204.7L483.0 204.7Q478.5 204.7 475.2 206.9Q471.9 209.1 470.0 213.3Q468.2 217.6 468.2 223.7L468.2 223.7Q468.2 229.9 470.0 234.1Q471.9 238.4 475.2 240.5Q478.5 242.7 483.0 242.7L483.0 242.7Q487.4 242.7 490.8 240.5Q494.1 238.4 495.9 234.1Q497.8 229.9 497.8 223.7ZM555.7 194.6L568.0 194.6L568.0 252.8L557.4 252.8L532.0 216.2L531.6 216.2L531.6 252.8L519.3 252.8L519.3 194.6L530.1 194.6L555.2 231.2L555.7 231.2L555.7 194.6ZM621.5 211.4L609.7 211.4Q609.3 207.9 606.8 206.0Q604.2 204.1 599.7 204.1L599.7 204.1Q596.7 204.1 594.7 205.0Q592.6 205.8 591.5 207.3Q590.4 208.7 590.4 210.6L590.4 210.6Q590.3 212.2 591.1 213.4Q591.8 214.5 593.1 215.4Q594.3 216.2 596.0 216.8Q597.7 217.4 599.6 217.8L599.6 217.8L604.8 219.1Q608.6 219.9 611.8 221.4Q615.0 222.8 617.3 224.9Q619.7 226.9 620.9 229.7Q622.2 232.6 622.3 236.2L622.3 236.2Q622.2 241.5 619.6 245.4Q616.9 249.3 611.8 251.5Q606.8 253.6 599.7 253.6L599.7 253.6Q592.6 253.6 587.4 251.5Q582.2 249.3 579.3 245.1Q576.4 240.8 576.2 234.5L576.2 234.5L588.1 234.5Q588.3 237.5 589.8 239.4Q591.3 241.4 593.8 242.3Q596.4 243.3 599.5 243.3L599.5 243.3Q602.7 243.3 605.0 242.4Q607.3 241.5 608.6 239.9Q609.9 238.3 609.9 236.2L609.9 236.2Q609.9 234.2 608.7 232.9Q607.6 231.5 605.3 230.6Q603.1 229.7 600.0 228.9L600.0 228.9L593.6 227.3Q586.3 225.5 582.0 221.7Q577.8 217.9 577.8 211.4L577.8 211.4Q577.8 206.2 580.6 202.2Q583.5 198.3 588.5 196.1Q593.5 193.8 599.8 193.8L599.8 193.8Q606.3 193.8 611.1 196.1Q616.0 198.3 618.7 202.2Q621.4 206.2 621.5 211.4L621.5 211.4Z " />
</svg>